
<svg
   xmlns:dc="http://purl.org/dc/elements/1.1/"
   xmlns:cc="http://creativecommons.org/ns#"
   xmlns:rdf="http://www.w3.org/1999/02/22-rdf-syntax-ns#"
   xmlns="http://www.w3.org/2000/svg"
   xmlns:sodipodi="http://sodipodi.sourceforge.net/DTD/sodipodi-0.dtd"
   xmlns:inkscape="http://www.inkscape.org/namespaces/inkscape"
   version="1.1"
   id="svg118"
   width="218.40213"
   height="218.82516"
   viewBox="0 0 218.40213 218.82516"
   class="pig"
   >


  <g
     id="g128"
     transform="translate(-0.13679036,-2.8709358)">
    <path
       style="fill:#000;stroke-width:1.33333337"
       d="m 102.31456,219.43251 c -5.340457,-2.83955 -6.133125,-2.93543 -9.534537,-1.15324 -4.83468,2.53315 -9.544671,1.27819 -14.297203,-3.80941 -3.373054,-3.61087 -4.340415,-3.94902 -9.030458,-3.15663 -6.321729,1.06804 -10.015778,-0.64941 -13.413312,-6.23621 -1.946023,-3.19998 -3.521232,-4.14904 -7.263449,-4.37624 -5.999763,-0.36427 -9.730947,-3.67875 -11.48838,-10.20536 -1.169158,-4.34192 -2.107383,-5.28015 -6.449305,-6.44931 -6.574958,-1.77044 -9.299436,-4.90701 -9.722802,-11.1934 -0.26509,-3.93621 -1.122786,-5.47769 -3.825518,-6.87532 -6.481982,-3.35197 -8.5776852,-8.43271 -6.493213,-15.74188 0.928402,-3.25543 0.47037,-4.29411 -3.3871338,-7.68104 -5.5566417,-4.8788 -6.78516188,-9.31536 -4.0461745,-14.61198 1.951131,-3.77307 1.9097648,-4.28246 -0.6383763,-7.86099 -3.62778423,-5.09475 -3.43871196,-10.59563 0.5500111,-16.00204 3.0402169,-4.12078 3.135693,-4.707445 1.3333334,-8.192825 C 1.5401416,89.953968 2.1731871,84.971695 6.5245898,80.802787 9.8404198,77.62602 10.284662,76.377132 9.6861387,71.914804 8.8404107,65.609432 11.403461,61.122901 17.23005,58.709449 c 3.253101,-1.347479 4.103284,-2.503776 4.103284,-5.5807 0,-7.575759 3.315881,-12.816738 9.229998,-14.58865 2.990169,-0.895876 5.436669,-2.405661 5.436669,-3.355078 C 36.000001,28.723599 41.900957,24 49.972887,24 c 3.27836,0 4.736218,-0.699896 5.325551,-2.556717 0.446308,-1.406195 2.03029,-4.106195 3.519956,-6 C 61.091118,12.553983 62.609208,12 68.254088,12 73.827484,12 75.762669,11.313944 79.537043,8.0000001 84.81512,3.365787 85.129356,3.3164258 91.709493,6.0879092 96.502304,8.10659 96.891741,8.0546755 103.45482,4.5221781 l 7.05514,-1.6512423 5.61153,1.2649944 c 5.93719,1.3384077 6.23642,3.0942328 9.64348,1.4458602 4.91137,-2.3761722 9.72042,-1.0813729 14.3363,3.8599445 3.29908,3.5316751 4.27547,3.8628701 9.10933,3.0899031 6.16962,-0.98656 11.2992,1.53544 13.65954,6.715804 1.0295,2.2595 2.8587,3.299993 6.70944,3.816485 6.60232,0.885557 10.04314,3.916665 11.78368,10.380543 1.07809,4.003707 2.14484,5.195124 5.2651,5.880449 6.91359,1.518482 10.70498,5.557534 10.70498,11.404282 0,4.359246 0.60994,5.517736 3.76377,7.148644 6.70409,3.466823 8.888,8.469764 6.83729,15.663087 -0.83133,2.91611 -0.30274,4.210124 2.99559,7.333333 5.71687,5.413326 6.78409,8.966803 4.40389,14.663415 -1.83658,4.395588 -1.78705,5.01715 0.67543,8.47538 3.43403,4.82265 3.37099,9.90642 -0.18475,14.89998 -2.50229,3.51415 -2.6617,4.59347 -1.33333,9.02719 2.36152,7.88205 1.84464,11.23909 -2.34915,15.25699 -3.31582,3.17677 -3.76008,4.42565 -3.16154,8.88798 0.84572,6.30538 -1.71734,10.7919 -7.54392,13.20535 -3.54882,1.46997 -4.10328,2.37416 -4.10328,6.6914 0,6.19279 -3.81224,11.30924 -9.93112,13.32865 -3.42066,1.12892 -4.7701,2.47806 -5.41486,5.41362 C 180.81327,196.06984 175.4441,200 169.31528,200 c -4.31724,0 -5.22142,0.55447 -6.6914,4.10328 -2.31304,5.5842 -6.71737,8.19016 -13.0673,7.73168 -4.30831,-0.31106 -6.12519,0.38804 -10.11704,3.89294 -5.69422,4.9996 -5.06222,4.89837 -12.94515,2.07322 -5.92456,-2.12329 -6.32589,-2.1055 -10,0.44311 -6.19484,4.29717 -8.04174,4.45193 -14.17983,1.18828 z m 17.6369,-5.60835 c 8.21554,-6.17573 8.21582,-6.17582 16.46545,-5.3098 4.53736,0.47632 10.50803,1.22207 13.26812,1.6572 6.23824,0.98346 8.06365,-0.43832 12.9568,-10.09178 5.1344,-10.12944 8.41688,-12.68114 19.83416,-15.41847 8.97599,-2.15201 9.96711,-2.72944 11.66667,-6.79707 C 195.1642,175.41935 196,169.43971 196,164.57616 c 0,-9.62696 0.25139,-10.02062 13.70512,-21.46238 6.03776,-5.13482 6.14668,-7.29992 0.96155,-19.11378 -2.2,-5.0125 -4,-9.8125 -4,-10.66666 0,-0.85417 1.8,-5.65417 4,-10.66667 5.41155,-12.329703 5.21467,-14.860954 -1.65943,-21.335878 -3.11269,-2.931935 -6.1215,-5.330791 -6.68626,-5.330791 -0.56476,0 -2.21578,-1.95 -3.66892,-4.333333 -2.00528,-3.288888 -2.64822,-6.743594 -2.66748,-14.333334 -0.014,-5.5 -0.46622,-10.660177 -1.00499,-11.467061 -1.55797,-2.333276 -6.24681,-4.403938 -13.48976,-5.957272 -9.05256,-1.941426 -12.88913,-5.297174 -17.70189,-15.483394 -5.08872,-10.770307 -7.43011,-11.852443 -19.5561,-9.038365 -10.9866,2.549665 -13.38969,1.975085 -22.86113,-5.4660985 -9.75345,-7.6627452 -12.7248,-7.6350024 -23.169378,0.2163275 -8.900315,6.690487 -8.295749,6.611861 -28.601243,3.719676 -7.061441,-1.005786 -9.938368,1.196884 -14.24436,10.905955 C 51.519782,33.412323 47.041493,36.863081 37.119433,38.815126 25.247648,41.150758 23.706899,42.911303 23.158571,54.767597 22.497766,69.055936 22.13967,69.856238 13.2995,76.801469 3.6104381,84.413629 2.6063298,87.371156 6.6077133,96.511635 c 6.1571597,14.064985 6.1758247,14.351105 1.577166,24.178215 -6.0677366,12.96646 -5.7276177,15.12829 3.6834297,23.41223 4.32757,3.80928 8.52757,8.3729 9.333334,10.14135 0.805763,1.76847 1.465024,7.6436 1.465024,13.05587 0,8.98029 0.299585,10.07614 3.427173,12.5363 1.884946,1.4827 6.100847,3.09676 9.36867,3.5868 8.982573,1.34702 13.932739,5.39308 18.986219,15.51856 5.474189,10.96843 7.886569,12.0703 20.409769,9.3223 4.887218,-1.07242 10.293373,-1.58775 12.013677,-1.14519 1.720305,0.44256 6.423572,3.52204 10.451704,6.84329 9.385211,7.73824 12.173431,7.72134 22.627581,-0.1372 z m -26.073008,2.32372 c 2.29538,-0.90009 2.108853,-1.30866 -1.900941,-4.16389 -4.14994,-2.95501 -12.255802,-4.15013 -14.297875,-2.10807 -0.440693,0.4407 0.605693,2.2989 2.325304,4.12934 3.184759,3.39002 8.571077,4.22189 13.873512,2.14262 z m 44.973848,-1.45412 c 2.68637,-2.25273 2.85458,-2.83597 1.1477,-3.97958 -2.92957,-1.96283 -8.90367,-1.67151 -13.39954,0.6534 -4.72308,2.4424 -4.84067,3.0205 -0.93379,4.59088 4.96627,1.99618 9.85631,1.52716 13.18563,-1.2647 z M 52.000001,197.87239 c 0,-2.28405 -4.850054,-8.49832 -7.616432,-9.75877 -5.608003,-2.55518 -7.170058,-1.93571 -5.591096,2.21728 2.124122,5.58686 5.22866,8.33577 9.414178,8.33577 2.086342,0 3.79335,-0.35743 3.79335,-0.79428 z m 123.123579,-0.68608 c 2.9416,-1.34029 6.20976,-6.15901 6.20976,-9.15597 0,-1.1069 -4.20447,-0.24472 -9.71599,1.99237 -1.31045,0.53191 -3.27585,2.6944 -4.36757,4.80553 -1.92911,3.73048 -1.89199,3.83843 1.31992,3.83843 1.81765,0 4.7669,-0.66616 6.55388,-1.48036 z M 17.679326,152.19434 C 13.550788,146.6646 12,147.1009 12,153.79212 c 0,4.97003 0.636667,6.51727 3.666667,8.91082 l 3.666667,2.89648 0.427118,-5.02279 c 0.286412,-3.36809 -0.399186,-6.12952 -2.081126,-8.38229 z m 189.214374,5.83985 c 0.79461,-1.74399 1.02016,-4.86257 0.50121,-6.9302 l -0.94352,-3.75932 -4.55903,4.97475 c -3.09932,3.38194 -4.55902,6.2727 -4.55902,9.02857 v 4.05383 l 4.0578,-2.09838 c 2.2318,-1.1541 4.70794,-3.52526 5.50256,-5.26925 z M 9.2860863,111.10905 c 0.098346,-8.79296 -2.6287115,-10.87037 -5.9185128,-4.5086 -2.6094727,5.04617 -2.56910201,8.04258 0.16087,11.94016 l 2.1951102,3.13396 1.7576427,-3.17062 c 0.9667035,-1.74384 1.7789039,-5.07154 1.8048899,-7.3949 z m 205.7597737,6.3519 c 2.86678,-4.85309 2.89105,-8.00587 0.0924,-12.00156 l -2.19512,-3.13396 -1.75764,3.17062 c -2.64371,4.76894 -2.17567,15.83729 0.66968,15.83729 0.49676,0 1.93257,-1.74258 3.19068,-3.87239 z m -8.37919,-47.409009 c 0,-4.401868 -0.75855,-6.654759 -2.91808,-8.666667 -4.14784,-3.8643 -5.08192,-3.416752 -5.08192,2.434915 0,4.994989 3.98972,12.179812 6.76344,12.179812 0.68011,0 1.23656,-2.676627 1.23656,-5.94806 z M 17.153716,71.524529 c 3.160352,-3.364041 5.494882,-12.857861 3.161748,-12.857861 -2.802788,0 -9.648797,7.79009 -9.648797,10.97939 0,5.810078 2.196077,6.446 6.487049,1.878471 z M 48.307222,32.388635 c 1.433544,-1.297339 3.171979,-3.415511 3.863189,-4.707049 1.086219,-2.029618 0.637204,-2.348252 -3.30912,-2.348252 -5.418905,0 -9.753168,3.280997 -10.935018,8.277709 -0.83382,3.525278 -0.751635,3.581656 3.460201,2.373718 2.372868,-0.68053 5.487205,-2.298787 6.920748,-3.596126 z m 130.992288,-0.0085 c -2.09443,-5.012679 -4.02332,-6.989164 -6.85712,-7.02631 -0.85669,-0.0112 -2.50669,-0.38461 -3.66667,-0.829736 -1.41557,-0.543245 -2.10905,-0.06099 -2.10905,1.466626 0,3.219034 8.51173,11.342652 11.88456,11.342652 2.73401,0 2.75629,-0.147433 0.74828,-4.953274 z M 92.596816,12.058389 96.526964,9.467682 92.843349,8.0671744 C 87.691953,6.1086172 83.754251,6.3204929 80.296676,8.7422721 c -3.566013,2.4977329 -3.778087,4.1826149 -0.630008,5.0052939 5.064387,1.323464 9.174459,0.786529 12.930148,-1.689177 z m 48.736524,1.507363 c 0,-1.692594 -5.67819,-6.5022704 -8.66667,-7.341043 C 131.2,5.8130609 128.2,6.2491704 126,7.1938398 l -4,1.7175818 4.66667,2.8726384 c 4.52992,2.788462 14.66667,4.019864 14.66667,1.781692 z"
       id="pig"
       inkscape:connector-curvature="0"
       sodipodi:nodetypes="scscscscscssssssssssssscssssscsssssscssscccsccccssscsccsscscssccssssssssccsssssssssssssscsssssssccccscccsccssssscsccsccsscsccccsscccssscssccccscssssssssssssssscccssccscssssssscss" />
    <path
       style="fill:#000;stroke-width:1.33333337"
       d="m 90.11072,142.03356 c 1.163889,-4.6373 -5.039951,-10.64164 -12.173892,-11.7824 l -5.379708,-0.86025 0.251254,-6.3165 c 0.213311,-5.36258 0.732074,-6.47678 3.435028,-7.37776 1.825418,-0.60848 3.865957,-2.86857 4.782707,-5.29732 1.414819,-3.74829 1.222876,-4.87776 -1.666913,-9.80882 -1.796216,-3.065007 -2.886851,-5.951741 -2.423632,-6.414959 1.791512,-1.791514 17.150916,-0.832998 20.134067,1.256482 1.947145,1.363835 7.726459,1.286984 10.198439,0.744044 3.10743,-0.682505 0.54804,-1.192985 1.18272,-5.10406 1.178,-7.259176 5.48566,-11.072016 12.5089,-11.072016 7.60721,0 12.37365,4.376123 12.37365,11.360383 0,2.648211 -1.92573,6.69285 -2.7219,8.180495 -2.44039,1.376481 0.36231,2.614131 2.58081,4.975611 1.51474,1.61236 3.42483,4.85575 4.24467,7.20754 1.68355,4.8294 4.59379,5.9027 3.42978,1.26489 -1.04415,-4.16019 0.83186,-6.64083 4.61742,-6.10557 2.65986,0.37608 3.15026,1.16168 2.98595,4.78332 -0.13227,2.91542 0.41308,4.33333 1.66667,4.33333 1.0248,0 1.86326,0.6 1.86326,1.33334 0,1.65359 -0.31742,1.65358 -4.66717,-2e-4 -4.76784,-1.81273 -8.10627,0.2007 -9.17252,5.53202 -0.47225,2.36126 -1.83901,5.37649 -3.03724,6.70051 -1.19821,1.32402 -2.46743,5.4134 -2.82047,9.08749 l -0.64188,6.68018 h -6.40717 c -5.23617,0 -6.56187,-0.48738 -7.25355,-2.66667 C 117.31206,140.49915 115.98262,140 110.89755,140 c -4.81208,0 -6.64048,0.61551 -7.92145,2.66667 -1.2655,2.02639 -3.109372,2.66667 -7.679467,2.66667 -5.732942,0 -5.975385,-0.15427 -5.185913,-3.29978 z m 11.39204,-1.52021 c 3.52204,-3.18741 16.94144,-3.32208 17.93736,-0.18001 0.53925,1.70129 2.15991,2.33333 5.98307,2.33333 h 5.24348 v -5.83675 c 0,-3.47001 0.78331,-6.48683 1.9318,-7.43998 1.06248,-0.88179 2.62524,-3.70439 3.47277,-6.27246 2.40303,-7.28126 -1.31234,-15.59627 -9.23156,-20.66023 C 121.15733,98.823657 119.81883,98.535241 110,98.828664 102.10516,99.064592 98.224487,98.565243 95.066215,96.907047 90.74142,94.636387 80.000001,93.788716 80.000001,95.718079 c 0,0.578276 1.173746,3.353642 2.608322,6.167481 2.591114,5.08232 2.590936,5.15015 -0.02709,10.28192 -1.720164,3.3718 -3.552126,5.16586 -5.274993,5.16586 -2.176087,0 -2.639568,0.90655 -2.639568,5.16292 0,5.0068 0.164022,5.18915 5.424232,6.03029 6.434897,1.02898 11.909101,5.96863 11.909101,10.74619 0,2.78933 0.634483,3.39393 3.561679,3.39393 1.958924,0 4.632406,-0.969 5.941076,-2.15332 z m 45.83058,-29.86494 c 0,-2.85801 -3.87423,-2.44521 -4.43616,0.47268 -0.34315,1.78186 0.19988,2.32489 1.98174,1.98174 1.34992,-0.25998 2.45442,-1.36446 2.45442,-2.45442 z m -17.1894,-12.981742 c 4.51576,-5.948772 -1.38278,-16.333333 -9.2775,-16.333333 -4.97047,0 -10.19977,5.4376 -10.19977,10.60606 0,3.52262 0.48579,4.070577 3.66667,4.135862 2.01666,0.04139 5.76666,0.869806 8.33333,1.84092 2.56667,0.971116 4.90052,1.837251 5.18634,1.924744 0.28582,0.08749 1.31674,-0.89092 2.29093,-2.174253 z"
       id="path130"
       inkscape:connector-curvature="0"
       sodipodi:nodetypes="sscscsccscssscccccssscccccscssssccscsccssssscssssscsccsssssscs" />
  </g>
</svg>
