<?xml version="1.0" encoding="UTF-8" standalone="no"?>
<!-- Created with Inkscape (http://www.inkscape.org/) -->

<svg
   xmlns:dc="http://purl.org/dc/elements/1.1/"
   xmlns:cc="http://creativecommons.org/ns#"
   xmlns:rdf="http://www.w3.org/1999/02/22-rdf-syntax-ns#"
   xmlns:svg="http://www.w3.org/2000/svg"
   xmlns="http://www.w3.org/2000/svg"
   xmlns:sodipodi="http://sodipodi.sourceforge.net/DTD/sodipodi-0.dtd"
   xmlns:inkscape="http://www.inkscape.org/namespaces/inkscape"
   version="1.1"
   id="svg184"
   width="223.87546"
   height="219.36794"
   viewBox="0 0 223.87546 219.36794"
   sodipodi:docname="prifile_ic.svg"
   inkscape:version="0.92.1 r15371">
  <metadata
     id="metadata190">
    <rdf:RDF>
      <cc:Work
         rdf:about="">
        <dc:format>image/svg+xml</dc:format>
        <dc:type
           rdf:resource="http://purl.org/dc/dcmitype/StillImage" />
        <dc:title></dc:title>
      </cc:Work>
    </rdf:RDF>
  </metadata>
  <defs
     id="defs188" />
  <sodipodi:namedview
     pagecolor="#ffffff"
     bordercolor="#666666"
     borderopacity="1"
     objecttolerance="10"
     gridtolerance="10"
     guidetolerance="10"
     inkscape:pageopacity="0"
     inkscape:pageshadow="2"
     inkscape:window-width="1920"
     inkscape:window-height="1017"
     id="namedview186"
     showgrid="false"
     fit-margin-top="0"
     fit-margin-left="0"
     fit-margin-right="0"
     fit-margin-bottom="0"
     inkscape:zoom="2.6644295"
     inkscape:cx="135.82757"
     inkscape:cy="101.92864"
     inkscape:window-x="-8"
     inkscape:window-y="-8"
     inkscape:window-maximized="1"
     inkscape:current-layer="svg184" />
  <g
     id="g194"
     transform="translate(0.003219,-0.99483665)">
    <path
       style="fill:#ededed;stroke-width:1.33333325"
       d="m 103.64789,218.09917 c -5.340457,-2.83955 -6.133125,-2.93543 -9.534537,-1.15324 -4.83468,2.53315 -9.54467,1.27819 -14.297202,-3.80941 -3.373053,-3.61087 -4.340415,-3.94902 -9.030457,-3.15663 -6.32173,1.06804 -10.015779,-0.64941 -13.413312,-6.23621 -1.946023,-3.19998 -3.521232,-4.14904 -7.263449,-4.37624 -5.999763,-0.36427 -9.730947,-3.67875 -11.48838,-10.20536 -1.169158,-4.34192 -2.107383,-5.28015 -6.449304,-6.44931 -6.574959,-1.77044 -9.299436,-4.90701 -9.722803,-11.1934 -0.265089,-3.93621 -1.122785,-5.47769 -3.825517,-6.87532 -6.481982,-3.35197 -8.577685,-8.43271 -6.493213,-15.74188 0.928402,-3.25543 0.47037,-4.29411 -3.3871337,-7.68104 -5.5566415,-4.8788 -6.7851617,-9.31536 -4.0461744,-14.61198 1.9511309,-3.77307 1.9097648,-4.28245 -0.6383762,-7.86099 -3.62778419,-5.09475 -3.43871192,-10.59563 0.550011,-16.00203 3.0402168,-4.120786 3.1356929,-4.707451 1.3333333,-8.192831 -3.0679011,-5.932667 -2.4348557,-10.91494 1.9165469,-15.083848 3.3158301,-3.176767 3.7600721,-4.425655 3.1615491,-8.887983 -0.845728,-6.305372 1.717322,-10.791902 7.54391,-13.205354 3.253102,-1.347479 4.103284,-2.503776 4.103284,-5.5807 0,-7.575759 3.315882,-12.816737 9.229999,-14.588649 2.990168,-0.895876 5.436668,-2.405662 5.436668,-3.355079 0,-6.461421 5.900956,-11.18502 13.972886,-11.18502 3.27836,0 4.736217,-0.699896 5.325551,-2.556717 0.446308,-1.406195 2.030289,-4.106195 3.519956,-6 2.272724,-2.8893 3.790813,-3.443282 9.435693,-3.443282 5.573396,0 7.508581,-0.6860565 11.282954,-4.0000004 5.278078,-4.634213 5.592314,-4.6835742 12.172451,-1.9120909 4.792811,2.0186807 5.182248,1.9667662 11.745326,-1.5657311 l 6.45642,-2.19400795 6.21025,1.80776015 c 5.84363,1.7010391 6.23642,3.0942327 9.64348,1.4458601 4.91137,-2.3761721 9.72042,-1.0813728 14.3363,3.8599444 3.29908,3.5316747 4.27546,3.8628697 9.10933,3.0899027 6.16961,-0.98656 11.2992,1.53544 13.65953,6.715804 1.02951,2.2595 2.85871,3.299993 6.70944,3.816485 6.60232,0.885557 10.04315,3.916665 11.78368,10.380543 1.0781,4.003706 2.14484,5.195123 5.26511,5.880449 6.91359,1.518481 10.70497,5.557533 10.70497,11.404281 0,4.359247 0.60995,5.517736 3.76378,7.148644 6.70409,3.466822 8.888,8.469764 6.83729,15.663086 -0.83133,2.916111 -0.30275,4.210124 2.99559,7.333333 5.71686,5.413326 6.78409,8.966803 4.40389,14.663415 -1.83659,4.395588 -1.78705,5.017149 0.67543,8.475386 3.43402,4.82264 3.37098,9.90641 -0.18475,14.89998 -2.50229,3.51415 -2.66171,4.59346 -1.33333,9.02719 2.36152,7.88204 1.84464,11.23908 -2.34915,15.25698 -3.31583,3.17677 -3.76008,4.42565 -3.16155,8.88798 0.84572,6.30538 -1.71733,10.7919 -7.54392,13.20535 -3.54881,1.46997 -4.10328,2.37416 -4.10328,6.6914 0,6.19279 -3.81224,11.30924 -9.93112,13.32865 -3.42065,1.12892 -4.77009,2.47806 -5.41485,5.41362 -1.17409,5.34562 -6.54327,9.27578 -12.67208,9.27578 -4.31724,0 -5.22143,0.55447 -6.6914,4.10328 -2.31304,5.5842 -6.71737,8.19016 -13.06731,7.73168 -4.3083,-0.31106 -6.12518,0.38804 -10.11704,3.89294 -5.69421,4.9996 -5.06221,4.89837 -12.94514,2.07322 -5.92456,-2.12329 -6.32589,-2.1055 -10,0.44311 -6.19484,4.29717 -8.04173,4.45193 -14.17983,1.18828 z m 17.6369,-5.60835 c 8.21554,-6.17573 8.21582,-6.17582 16.46545,-5.3098 4.53736,0.47632 10.50802,1.22207 13.26812,1.6572 6.23824,0.98346 8.06365,-0.43832 12.9568,-10.09178 5.1344,-10.12944 8.41688,-12.68114 19.83416,-15.41847 8.97598,-2.15201 9.9671,-2.72944 11.66666,-6.79707 1.02155,-2.44489 1.85735,-8.42453 1.85735,-13.28808 0,-9.62696 0.25139,-10.02062 13.70512,-21.46238 6.03776,-5.13482 6.14668,-7.29992 0.96155,-19.11378 -2.2,-5.0125 -4,-9.8125 -4,-10.66666 0,-0.85417 1.8,-5.65417 4,-10.66667 5.41154,-12.329699 5.21466,-14.86095 -1.65943,-21.335874 -3.11269,-2.931934 -6.12151,-5.33079 -6.68627,-5.33079 -0.56476,0 -2.21577,-1.95 -3.66892,-4.333334 -2.00528,-3.288888 -2.64821,-6.743593 -2.66748,-14.333333 -0.014,-5.5 -0.46621,-10.660177 -1.00498,-11.467061 -1.55798,-2.333276 -6.24682,-4.403937 -13.48976,-5.957272 -9.05256,-1.941425 -12.88914,-5.297173 -17.7019,-15.483393 -5.08872,-10.770306 -7.4301,-11.852443 -19.55609,-9.038365 -10.9866,2.549665 -13.38969,1.975085 -22.86113,-5.4660981 C 112.95059,0.92506497 109.97924,0.95280777 99.534663,8.8041369 90.634348,15.494624 91.238913,15.415998 70.93342,12.523813 63.871979,11.518027 60.995052,13.720697 56.68906,23.429768 52.853114,32.078989 48.374825,35.529746 38.452765,37.481791 26.580981,39.817423 25.040232,41.577969 24.491904,53.434262 23.831098,67.7226 23.473002,68.522903 14.632833,75.468134 4.9437713,83.080293 3.939663,86.03782 7.9410464,95.178299 c 6.1571596,14.064981 6.1758236,14.351111 1.577166,24.178211 -6.0677365,12.96646 -5.7276175,15.12829 3.6834296,23.41223 4.32757,3.80928 8.52757,8.3729 9.333334,10.14135 C 23.340738,154.67856 24,160.55369 24,165.96596 c 0,8.98029 0.299585,10.07614 3.427173,12.5363 1.884945,1.4827 6.100846,3.09676 9.368669,3.5868 8.982573,1.34702 13.932739,5.39308 18.986218,15.51856 5.47419,10.96843 7.88657,12.0703 20.40977,9.3223 4.887217,-1.07242 10.293371,-1.58775 12.013675,-1.14519 1.720306,0.44256 6.423572,3.52204 10.451704,6.84329 9.385211,7.73824 12.173431,7.72134 22.627581,-0.1372 z m -26.073007,2.32372 c 2.29538,-0.90009 2.108853,-1.30866 -1.900942,-4.16389 -4.14994,-2.95501 -12.255801,-4.15013 -14.297874,-2.10807 -0.440694,0.4407 0.605693,2.2989 2.325304,4.12934 3.184758,3.39002 8.571077,4.22189 13.873512,2.14262 z m 44.973837,-1.45412 c 2.68638,-2.25273 2.85459,-2.83597 1.14771,-3.97958 -2.92957,-1.96283 -8.90367,-1.67151 -13.39955,0.6534 -4.72307,2.4424 -4.84066,3.0205 -0.93378,4.59088 4.96626,1.99618 9.8563,1.52716 13.18562,-1.2647 z M 53.333333,196.53905 c 0,-2.28405 -4.850054,-8.49832 -7.616432,-9.75877 -5.608003,-2.55518 -7.170058,-1.93571 -5.591096,2.21728 2.124122,5.58686 5.22866,8.33577 9.414178,8.33577 2.086342,0 3.79335,-0.35743 3.79335,-0.79428 z M 176.4569,195.85297 c 2.9416,-1.34029 6.20976,-6.15901 6.20976,-9.15597 0,-1.1069 -4.20446,-0.24472 -9.71598,1.99237 -1.31046,0.53191 -3.27586,2.6944 -4.36758,4.80553 -1.9291,3.73048 -1.89198,3.83843 1.31992,3.83843 1.81766,0 4.76691,-0.66616 6.55388,-1.48036 z M 19.012658,150.861 c -4.128537,-5.52974 -5.679325,-5.09344 -5.679325,1.59778 0,4.97003 0.636667,6.51727 3.666667,8.91082 l 3.666666,2.89648 0.427119,-5.02279 c 0.286412,-3.36809 -0.399187,-6.12952 -2.081127,-8.38229 z m 189.214362,5.83985 c 0.79462,-1.74399 1.02016,-4.86257 0.50122,-6.9302 l -0.94352,-3.75932 -4.55903,4.97475 c -3.09932,3.38194 -4.55903,6.2727 -4.55903,9.02857 v 4.05383 l 4.0578,-2.09838 c 2.2318,-1.1541 4.70795,-3.52526 5.50256,-5.26925 z M 10.619419,109.77571 c 0.09835,-8.79295 -2.6287111,-10.870365 -5.9185123,-4.50859 -2.6094726,5.04616 -2.5691019,8.04257 0.16087,11.94015 l 2.1951101,3.13396 1.7576427,-3.17061 c 0.9667034,-1.74384 1.7789035,-5.07155 1.8048895,-7.39491 z m 205.759761,6.3519 c 2.86679,-4.85309 2.89106,-8.00587 0.0924,-12.00155 l -2.19512,-3.13396 -1.75764,3.17061 C 209.87512,108.93166 210.34316,120 213.1885,120 c 0.49676,0 1.93258,-1.74258 3.19068,-3.87239 z M 208,68.718606 c 0,-4.401868 -0.75855,-6.654759 -2.91808,-8.666667 C 200.93408,56.187639 200,56.635187 200,62.486854 c 0,4.994989 3.98972,12.179812 6.76344,12.179812 0.6801,0 1.23656,-2.676627 1.23656,-5.94806 z M 18.487049,70.191194 C 21.647401,66.827152 23.98193,57.333332 21.648797,57.333332 18.846009,57.333332 12,65.123423 12,68.312723 c 0,5.810077 2.196077,6.446 6.487049,1.878471 z M 49.640554,31.055301 C 51.074098,29.757962 52.812533,27.63979 53.503743,26.348252 54.589962,24.318634 54.140947,24 50.194623,24 c -5.418905,0 -9.753168,3.280997 -10.935018,8.277709 -0.83382,3.525277 -0.751635,3.581656 3.460201,2.373717 2.372868,-0.680529 5.487205,-2.298786 6.920748,-3.596125 z m 130.992286,-0.0085 c -2.09443,-5.012679 -4.02332,-6.989164 -6.85712,-7.02631 -0.8567,-0.0112 -2.5067,-0.38461 -3.66667,-0.829736 C 168.69348,22.647477 168,23.129737 168,24.657348 c 0,3.219034 8.51173,11.342651 11.88456,11.342651 2.73401,0 2.75629,-0.147433 0.74828,-4.953273 z M 93.930147,10.725055 97.860295,8.1343484 94.17668,6.7338408 C 89.025284,4.7752837 85.087581,4.9871594 81.630007,7.4089386 78.063993,9.9066717 77.85192,11.591553 80.999999,12.414232 c 5.064386,1.323464 9.174458,0.786529 12.930148,-1.689177 z m 48.736513,1.507363 c 0,-1.692594 -5.67818,-6.50227 -8.66666,-7.3410425 -1.46667,-0.4116481 -4.46667,0.024461 -6.66667,0.9691308 l -4,1.7175817 L 128,10.450727 c 4.52992,2.788461 14.66666,4.019863 14.66666,1.781691 z"
       id="path204"
       inkscape:connector-curvature="0"
       sodipodi:nodetypes="ccscscscscsssccsssssssscssssscsssscscssscccssscccsccscccscccsscccssssscssccssssssssssssscsssssssccccscccsccssssscsccsccsscsccccsscccsssccsccccscssssssssssssssscccssccscssssssscss" />
    <path
       style="fill:#383838;fill-opacity:1;stroke-width:1.33333325"
       d="m 114.20601,121.66666 c -0.33992,-0.55 5.26738,-1 12.46065,-1 7.19328,0 12.80058,0.45 12.46066,1 -0.33992,0.55 -5.94721,1 -12.46066,1 -6.51344,0 -12.12073,-0.45 -12.46065,-1 z m 0,-19.33333 c 0.33992,-0.55 5.94721,-1 12.46065,-1 6.51345,0 12.12074,0.45 12.46066,1 -8.06754,1.00613 -17.25917,2.55104 -24.92131,0 z"
       id="path202"
       inkscape:connector-curvature="0"
       sodipodi:nodetypes="ssssscscc" />
    <path
       style="fill:#383838;stroke-width:1.33333325"
       d="m 91.37038,137.4303 -10.703715,-0.19438 0.38641,-26.54456 0.386409,-26.544555 17.282592,-0.406736 17.282594,-0.406737 -0.002,4.333333 -0.002,4.333334 h 15.33333 15.33333 v 22.666661 22.66667 H 137.334 c -11.41519,0 -11.17652,0.0843 -11.26292,-3.97551 -0.0437,-2.0522 -0.95657,-3.48187 -2.40375,-3.76443 -1.84554,-0.36035 -2.33333,0.47075 -2.33333,3.97551 V 138 h -14.66733 v -4.33334 c 0,-3.39949 -0.55733,-4.33333 -2.58618,-4.33333 -1.94397,0 -2.68895,1.07608 -3,4.33333 l 0.008,3.91111 z m 9.29662,-4.25251 c 0.33137,-2.87996 0.78637,-4.60165 3.66633,-4.93302 3.29456,-0.37908 3.66667,-0.007 3.66667,3.66667 0,3.95681 0.19334,4.08856 6,4.08856 5.80666,0 6,-0.13174 6,-4.08856 0,-3.67364 0.37211,-4.04575 3.66666,-3.66667 2.87996,0.33137 3.75719,1.2086 4.08857,4.08856 0.4115,3.57633 0.63323,3.66667 8.99999,3.66667 h 8.57811 V 114.66666 93.333332 H 130 114.66666 v -4 -4 h -15.999995 -16 V 110.66667 136 h 8.578104 c 8.976651,0 9.057641,0.0503 9.422231,-2.82221 z M 90.222221,120.44444 c -1.91072,-1.91072 -0.866513,-8.27184 1.48012,-9.01664 1.848028,-0.58654 2.262491,-1.86883 1.884651,-5.83085 -0.32612,-3.41969 0.185793,-5.635146 1.566939,-6.781395 2.826268,-2.345594 6.732969,-1.334731 7.213199,1.866425 0.36418,2.42755 -0.35788,2.7476 -1.05094,0.31802 -3.410627,-5.493308 -7.653266,-0.60532 -6.00163,6.91453 0.694049,3.15999 0.337535,4.01619 -1.978368,4.75123 -1.940492,0.61588 -2.69628,1.80004 -2.413921,3.78209 0.353061,2.47835 1.400842,2.94242 7.42597,3.28901 5.631669,0.32396 7.187689,-0.0467 7.891129,-1.87986 0.59398,-1.54789 -0.25262,-3.1835 -2.62826,-5.07778 -2.50061,-1.99391 -3.16302,-3.34687 -2.31244,-4.72313 0.65562,-1.06083 1.42536,-2.67605 0.99377,-3.37437 -0.0844,-1.19843 -0.81119,-4.54725 0.0747,-3.99974 0.87647,0.54169 1.3881,5.98873 0.95636,7.34902 -0.52732,1.66144 0.11135,2.95296 1.94576,3.9347 3.03944,1.62666 3.57725,5.32113 1.13075,7.76763 -1.67682,1.67682 -14.642171,2.24672 -16.177779,0.71111 z m 30.111109,-0.0912 c -239.60593,68.82132 -119.80296667,34.41066 0,0 z m -5.66667,-8.01995 c 0,-0.55 5.4,-1 12,-1 6.6,0 12,0.45 12,1 0,0.55 -5.4,1 -12,1 -6.6,0 -12,-0.45 -12,-1 z"
       id="path196"
       inkscape:connector-curvature="0"
       sodipodi:nodetypes="ccccccccccccsccsccsscccccsssccscccccccccccscscssccscsscccccscssccsssss" />
  </g>
</svg>
