<svg
   xmlns:dc="http://purl.org/dc/elements/1.1/"
   xmlns:cc="http://creativecommons.org/ns#"
   xmlns:rdf="http://www.w3.org/1999/02/22-rdf-syntax-ns#"
   xmlns:svg="http://www.w3.org/2000/svg"
   xmlns="http://www.w3.org/2000/svg"
   xmlns:sodipodi="http://sodipodi.sourceforge.net/DTD/sodipodi-0.dtd"
   xmlns:inkscape="http://www.inkscape.org/namespaces/inkscape"
   version="1.1"
   id="svg240"
   width="218.40213"
   height="219.27939"
   viewBox="0 0 218.40213 219.27939"
   sodipodi:docname="time_ic.svg"
   inkscape:version="0.92.1 r15371">
  <metadata
     id="metadata246">
    <rdf:RDF>
      <cc:Work
         rdf:about="">
        <dc:format>image/svg+xml</dc:format>
        <dc:type
           rdf:resource="http://purl.org/dc/dcmitype/StillImage" />
        <dc:title></dc:title>
      </cc:Work>
    </rdf:RDF>
  </metadata>
  <defs
     id="defs244" />
  <sodipodi:namedview
     pagecolor="#ffffff"
     bordercolor="#666666"
     borderopacity="1"
     objecttolerance="10"
     gridtolerance="10"
     guidetolerance="10"
     inkscape:pageopacity="0"
     inkscape:pageshadow="2"
     inkscape:window-width="1920"
     inkscape:window-height="1017"
     id="namedview242"
     showgrid="false"
     fit-margin-top="0"
     fit-margin-left="0"
     fit-margin-right="0"
     fit-margin-bottom="0"
     inkscape:zoom="2.6644295"
     inkscape:cx="105.52538"
     inkscape:cy="67.73633"
     inkscape:window-x="-8"
     inkscape:window-y="-8"
     inkscape:window-maximized="1"
     inkscape:current-layer="svg240" />
  <g
     id="g394"
     transform="translate(-0.13679037,-1.0833782)">
    <path
       style="fill:#ececec;stroke-width:1.33333337"
       d="m 102.31456,218.09917 c -5.340459,-2.83955 -6.133127,-2.93543 -9.534539,-1.15324 -4.83468,2.53315 -9.54467,1.27819 -14.297202,-3.80941 -3.373054,-3.61087 -4.340415,-3.94902 -9.030458,-3.15663 -6.321729,1.06804 -10.015778,-0.64941 -13.413312,-6.23621 -1.946022,-3.19998 -3.521232,-4.14904 -7.263449,-4.37624 -5.999763,-0.36427 -9.730947,-3.67875 -11.48838,-10.20536 -1.169157,-4.34192 -2.107383,-5.28015 -6.449304,-6.44931 -6.574959,-1.77044 -9.299436,-4.90701 -9.722803,-11.1934 -0.265089,-3.93621 -1.122785,-5.47769 -3.825517,-6.87532 -6.481983,-3.35197 -8.5776853,-8.43271 -6.493213,-15.74188 0.928402,-3.25543 0.470369,-4.29411 -3.3871339,-7.68104 -5.5566416,-4.8788 -6.78516179,-9.31536 -4.0461744,-14.61198 1.9511309,-3.77307 1.9097648,-4.28245 -0.6383763,-7.86099 -3.62778421,-5.09475 -3.43871195,-10.59563 0.5500111,-16.00203 C 6.3149263,98.625344 6.4104024,98.038679 4.6080428,94.553299 1.5401416,88.620632 2.1731871,83.638359 6.5245897,79.469451 9.8404196,76.292684 10.284662,75.043796 9.6861385,70.581468 8.8404105,64.276096 11.40346,59.789566 17.230049,57.376114 c 3.253102,-1.347479 4.103284,-2.503776 4.103284,-5.5807 0,-7.575759 3.315882,-12.816737 9.229999,-14.588649 C 33.5535,36.310889 36,34.801103 36,33.851686 c 0,-6.461421 5.900956,-11.18502 13.972887,-11.18502 3.27836,0 4.736217,-0.699896 5.32555,-2.556717 0.446308,-1.406195 2.03029,-4.106195 3.519956,-6 2.272724,-2.8893 3.790814,-3.443282 9.435694,-3.443282 5.573396,0 7.508581,-0.6860565 11.282954,-4.0000004 5.278078,-4.634213 5.592314,-4.6835742 12.172451,-1.9120909 4.792811,2.0186807 5.182248,1.9667662 11.745328,-1.5657311 l 7.06964,-2.1054664 5.59702,1.7192186 c 5.81791,1.7870673 6.23643,3.0942327 9.64349,1.4458601 4.91137,-2.3761721 9.72042,-1.0813728 14.3363,3.8599444 3.29908,3.5316747 4.27546,3.8628697 9.10933,3.0899027 6.16961,-0.98656 11.2992,1.53544 13.65953,6.715804 1.02951,2.2595 2.85871,3.299993 6.70944,3.816485 6.60232,0.885557 10.04315,3.916665 11.78368,10.380543 1.0781,4.003706 2.14484,5.195123 5.26511,5.880449 6.91359,1.518481 10.70497,5.557533 10.70497,11.404281 0,4.359247 0.60995,5.517736 3.76378,7.148644 6.70409,3.466822 8.888,8.469764 6.83729,15.663086 -0.83133,2.916111 -0.30275,4.210124 2.99559,7.333333 5.71686,5.413326 6.78409,8.966803 4.40389,14.663415 -1.83659,4.395588 -1.78705,5.017149 0.67543,8.475386 3.43402,4.82264 3.37098,9.90641 -0.18475,14.89998 -2.50229,3.51415 -2.66171,4.59346 -1.33333,9.02719 2.36152,7.88204 1.84464,11.23908 -2.34915,15.25698 -3.31583,3.17677 -3.76008,4.42565 -3.16155,8.88798 0.84572,6.30538 -1.71733,10.7919 -7.54392,13.20535 -3.54881,1.46997 -4.10328,2.37416 -4.10328,6.6914 0,6.19279 -3.81224,11.30924 -9.93112,13.32865 -3.42065,1.12892 -4.77009,2.47806 -5.41485,5.41362 -1.17409,5.34562 -6.54327,9.27578 -12.67208,9.27578 -4.31724,0 -5.22143,0.55447 -6.6914,4.10328 -2.31304,5.5842 -6.71737,8.19016 -13.06731,7.73168 -4.3083,-0.31106 -6.12518,0.38804 -10.11704,3.89294 -5.69421,4.9996 -5.06221,4.89837 -12.94514,2.07322 -5.92456,-2.12329 -6.32589,-2.1055 -10,0.44311 -6.19484,4.29717 -8.04174,4.45193 -14.17983,1.18828 z m 17.6369,-5.60835 c 8.21554,-6.17573 8.21582,-6.17582 16.46545,-5.3098 4.53736,0.47632 10.50802,1.22207 13.26812,1.6572 6.23824,0.98346 8.06365,-0.43832 12.9568,-10.09178 5.1344,-10.12944 8.41688,-12.68114 19.83416,-15.41847 8.97598,-2.15201 9.9671,-2.72944 11.66666,-6.79707 C 195.1642,174.08601 196,168.10637 196,163.24282 c 0,-9.62696 0.25139,-10.02062 13.70512,-21.46238 6.03776,-5.13482 6.14668,-7.29992 0.96155,-19.11378 -2.2,-5.0125 -4,-9.8125 -4,-10.66666 0,-0.85417 1.8,-5.65417 4,-10.66667 5.41154,-12.329699 5.21466,-14.86095 -1.65943,-21.335874 -3.11269,-2.931934 -6.12151,-5.33079 -6.68627,-5.33079 -0.56476,0 -2.21577,-1.95 -3.66892,-4.333334 -2.00528,-3.288888 -2.64821,-6.743593 -2.66748,-14.333333 -0.014,-5.5 -0.46621,-10.660177 -1.00498,-11.467061 -1.55798,-2.333276 -6.24682,-4.403937 -13.48976,-5.957272 -9.05256,-1.941425 -12.88914,-5.297173 -17.7019,-15.483393 -5.08872,-10.770306 -7.4301,-11.852443 -19.55609,-9.038365 -10.9866,2.549665 -13.38969,1.975085 -22.86113,-5.4660981 C 111.61726,0.92506497 108.64591,0.95280777 98.201331,8.8041369 89.301016,15.494624 89.905581,15.415998 69.600088,12.523813 62.538647,11.518027 59.66172,13.720697 55.355728,23.429768 51.519781,32.078989 47.041492,35.529746 37.119432,37.481791 25.247648,39.817423 23.706899,41.577969 23.158571,53.434262 22.497765,67.7226 22.139669,68.522903 13.2995,75.468134 3.610438,83.080293 2.6063297,86.03782 6.6077132,95.178299 c 6.1571598,14.064981 6.1758238,14.351111 1.577166,24.178211 -6.0677365,12.96646 -5.7276176,15.12829 3.6834298,23.41223 4.32757,3.80928 8.52757,8.3729 9.333334,10.14135 0.805762,1.76847 1.465024,7.6436 1.465024,13.05587 0,8.98029 0.299585,10.07614 3.427173,12.5363 1.884945,1.4827 6.100847,3.09676 9.368669,3.5868 8.982574,1.34702 13.932739,5.39308 18.986219,15.51856 5.474189,10.96843 7.886569,12.0703 20.409769,9.3223 4.887218,-1.07242 10.293372,-1.58775 12.013676,-1.14519 1.720306,0.44256 6.423572,3.52204 10.451704,6.84329 9.385213,7.73824 12.173423,7.72134 22.627583,-0.1372 z m -26.073009,2.32372 c 2.29538,-0.90009 2.108853,-1.30866 -1.900942,-4.16389 -4.14994,-2.95501 -12.255801,-4.15013 -14.297874,-2.10807 -0.440694,0.4407 0.605693,2.2989 2.325304,4.12934 3.184758,3.39002 8.571077,4.22189 13.873512,2.14262 z m 44.973839,-1.45412 c 2.68638,-2.25273 2.85459,-2.83597 1.14771,-3.97958 -2.92957,-1.96283 -8.90367,-1.67151 -13.39955,0.6534 -4.72307,2.4424 -4.84066,3.0205 -0.93378,4.59088 4.96626,1.99618 9.8563,1.52716 13.18562,-1.2647 z M 52,196.53905 c 0,-2.28405 -4.850053,-8.49832 -7.616432,-9.75877 -5.608003,-2.55518 -7.170057,-1.93571 -5.591096,2.21728 2.124123,5.58686 5.22866,8.33577 9.414179,8.33577 2.086341,0 3.793349,-0.35743 3.793349,-0.79428 z m 123.12357,-0.68608 c 2.9416,-1.34029 6.20976,-6.15901 6.20976,-9.15597 0,-1.1069 -4.20446,-0.24472 -9.71598,1.99237 -1.31046,0.53191 -3.27586,2.6944 -4.36758,4.80553 -1.9291,3.73048 -1.89198,3.83843 1.31992,3.83843 1.81766,0 4.76691,-0.66616 6.55388,-1.48036 z M 17.679325,150.861 C 13.550788,145.33126 12,145.76756 12,152.45878 c 0,4.97003 0.636667,6.51727 3.666667,8.91082 l 3.666666,2.89648 0.427119,-5.02279 c 0.286412,-3.36809 -0.399187,-6.12952 -2.081127,-8.38229 z m 189.214365,5.83985 c 0.79462,-1.74399 1.02016,-4.86257 0.50122,-6.9302 l -0.94352,-3.75932 -4.55903,4.97475 c -3.09932,3.38194 -4.55903,6.2727 -4.55903,9.02857 v 4.05383 l 4.0578,-2.09838 c 2.2318,-1.1541 4.70795,-3.52526 5.50256,-5.26925 z M 9.2860861,109.77571 c 0.098346,-8.79295 -2.6287114,-10.870365 -5.9185126,-4.50859 -2.60947271,5.04616 -2.56910202,8.04257 0.16087,11.94015 l 2.1951101,3.13396 1.7576427,-3.17061 c 0.9667034,-1.74384 1.7789038,-5.07155 1.8048898,-7.39491 z m 205.7597639,6.3519 c 2.86679,-4.85309 2.89106,-8.00587 0.0924,-12.00155 l -2.19512,-3.13396 -1.75764,3.17061 C 208.54179,108.93166 209.00983,120 211.85517,120 c 0.49676,0 1.93258,-1.74258 3.19068,-3.87239 z m -8.37918,-47.409004 c 0,-4.401868 -0.75855,-6.654759 -2.91808,-8.666667 -4.14784,-3.8643 -5.08192,-3.416752 -5.08192,2.434915 0,4.994989 3.98972,12.179812 6.76344,12.179812 0.6801,0 1.23656,-2.676627 1.23656,-5.94806 z M 17.153716,70.191194 c 3.160352,-3.364042 5.494881,-12.857862 3.161748,-12.857862 -2.802788,0 -9.648797,7.790091 -9.648797,10.979391 0,5.810077 2.196077,6.446 6.487049,1.878471 z M 48.307221,31.055301 C 49.740765,29.757962 51.4792,27.63979 52.170411,26.348252 53.256629,24.318634 52.807615,24 48.861291,24 c -5.418906,0 -9.753168,3.280997 -10.935019,8.277709 -0.83382,3.525277 -0.751635,3.581656 3.460201,2.373717 2.372868,-0.680529 5.487206,-2.298786 6.920748,-3.596125 z m 130.992289,-0.0085 c -2.09443,-5.012679 -4.02332,-6.989164 -6.85712,-7.02631 -0.8567,-0.0112 -2.5067,-0.38461 -3.66667,-0.829736 -1.41557,-0.543245 -2.10905,-0.06099 -2.10905,1.466626 0,3.219034 8.51173,11.342651 11.88456,11.342651 2.73401,0 2.75629,-0.147433 0.74828,-4.953273 z M 92.596815,10.725055 96.526963,8.1343484 92.843348,6.7338408 C 87.691952,4.7752837 83.754249,4.9871594 80.296675,7.4089386 c -3.566014,2.4977331 -3.778087,4.1826144 -0.630008,5.0052934 5.064386,1.323464 9.174458,0.786529 12.930148,-1.689177 z m 48.736515,1.507363 c 0,-1.692594 -5.67818,-6.50227 -8.66666,-7.3410425 C 131.2,4.4797274 128.2,4.9158369 126,5.8605063 l -4,1.7175817 4.66667,2.872639 c 4.52992,2.788461 14.66666,4.019863 14.66666,1.781691 z"
       id="path408"
       inkscape:connector-curvature="0"
       sodipodi:nodetypes="scscscscscsssccsssssssscssssscsssscscssscccssscccsccscccscsssscccssssscssccssssssssssssscsssssssscccscccsccsscsscsccsccsscsccccsscccsssccsccccscssssssssssssssscccssccscssssssscss" />
  </g>
  <path
     style="fill:#000000;stroke-width:1.33333337"
     d="m 105.76729,141.99095 c -1.46667,-0.34487 -4.35005,-1.27999 -6.407507,-2.07807 -2.745733,-1.06502 -4.146743,-1.04513 -5.266673,0.0748 -2.19893,2.19894 -4.28219,1.88312 -2.41545,-0.36617 1.25318,-1.50999 0.61311,-3.14589 -3.17007,-8.10213 -2.60717,-3.41557 -4.76643,-6.61417 -4.79837,-7.108 -0.0319,-0.49383 -0.5589,-3.48906 -1.17104,-6.65606 -1.40108,-7.24885 0.34493,-15.36447 4.74551,-22.057564 2.4143,-3.67204 2.97429,-5.56022 1.95217,-6.58234 -1.02211,-1.02211 -2.3828,-0.5412 -4.74345,1.67652 l -3.3102,3.10977 -1.34112,-3.52743 c -2.57208,-6.76508 2.92717,-13.56971 9.56392,-11.83416 3.67072,0.95991 4.19962,2.87317 1.59107,5.75559 -1.7228,1.90367 -1.96654,3.01339 -0.89682,4.08311 1.06972,1.06972 3.05993,0.69878 7.32279,-1.36484 7.76587,-3.75939 18.25795,-3.75939 26.02381,0 4.26287,2.06362 6.25308,2.43456 7.3228,1.36484 1.06972,-1.06974 0.79756,-2.21085 -1.00137,-4.19865 -3.21132,-3.54847 -1.20087,-5.67399 4.82119,-5.09712 5.70206,0.54622 8.61581,5.56405 6.48513,11.16817 l -1.38791,3.65047 -3.3102,-3.10977 c -2.36065,-2.21771 -3.72133,-2.69863 -4.74345,-1.67651 -1.02211,1.02212 -0.46212,2.9103 1.95217,6.58234 4.40059,6.693094 6.1466,14.808714 4.74551,22.057554 -0.61213,3.16701 -1.13911,6.16224 -1.17104,6.65607 -0.0319,0.49383 -2.1912,3.69243 -4.79836,7.10799 -3.78318,4.95624 -4.42325,6.59215 -3.17008,8.10214 1.86675,2.24929 -0.21651,2.5651 -2.41545,0.36617 -1.12706,-1.12705 -2.50344,-1.14121 -5.26666,-0.0541 -4.77778,1.87958 -12.31013,2.86412 -15.74085,2.05744 z m 16.38645,-4.34769 c 13.34427,-6.84335 18.79798,-22.99201 12.42683,-36.79643 -7.49544,-16.240414 -29.3554,-20.480214 -42.63764,-8.269694 -10.77589,9.906404 -10.76156,30.657644 0.0279,40.440894 8.24427,7.4754 20.85645,9.40809 30.18288,4.62523 z m -7.05312,-18.79643 c -0.45322,-0.73333 -2.26752,-1.33333 -4.03177,-1.33333 -3.15965,0 -6.70575,-4.15137 -5.0017,-5.85542 0.47999,-0.47998 -2.06857,-3.85887 -5.66346,-7.50863 -3.59488,-3.64978 -5.93048,-6.635954 -5.19021,-6.635954 0.74027,0 3.689493,2.400006 6.55381,5.333334 3.042,3.1153 6.46209,5.33334 8.22369,5.33334 2.97377,0 6.4705,4.19469 4.84868,5.81651 -0.45859,0.45859 0.25552,2.03748 1.5869,3.50864 1.33138,1.47117 1.76311,2.67484 0.9594,2.67484 -0.80371,0 -1.83211,-0.6 -2.28534,-1.33333 z m -2.44777,-4.75629 c 1.11128,-2.89595 -1.70992,-5.61935 -3.72927,-3.6 -1.70671,1.70671 -0.6494,5.68962 1.51038,5.68962 0.77936,0 1.77786,-0.94033 2.21889,-2.08962 z m -3.55223,-18.065814 c 0,-2.89979 -1.78415,-3.01793 -8.66666,-0.57384 -2.62885,0.93354 -2.62996,0.91707 -0.0785,-1.16187 1.4235,-1.15987 4.5735,-2.10885 7,-2.10885 3.81706,0 4.41183,0.44937 4.41183,3.33333 0,1.83334 -0.6,3.33334 -1.33333,3.33334 -0.73334,0 -1.33334,-1.26994 -1.33334,-2.82211 z M 87.33928,86.012576 c 2.43541,-2.65884 4.42801,-5.05884 4.42801,-5.33333 0,-1.25295 -7.64055,-0.3252 -9.06667,1.10092 -1.68328,1.68329 -2.24899,9.06667 -0.69467,9.06667 0.49793,0 2.89793,-2.17542 5.33333,-4.83426 z m 52.42801,1.10092 c 0,-4.73791 -2.19543,-6.93333 -6.93333,-6.93333 -2.05334,0 -3.73334,0.20596 -3.73334,0.45769 0,0.98614 8.72584,10.19501 9.66667,10.20178 0.55,0.004 1,-1.6728 1,-3.72614 z"
     id="path366"
     inkscape:connector-curvature="0" />
</svg>
